# xmcd
#
# Track frame offsets:
#	150
#	13524
#	29692
#	43501
#	59452
#	75555
#	93003
#	105501
#	119476
#	136337
#	150505
#	165507
#	178189
#	196215
#	209807
#	237873
#
# Disc length: 3186 seconds
#
# Revision: 0
# Processed by: cddbd v1.5.1PL2 Copyright (c) Steve Scherf et al.
# Submitted via: audiograbber 1.83.01
#
DISCID=cf0c7010
DTITLE=Tanya Tucker - CBK-90150
DYEAR=1900
DGENRE=Karaoke
TTITLE0=Strong Enough To Bend
TTITLE1=Love Me Like You Used To
TTITLE2=One Love At A Time
TTITLE3=If It Don't Come Easy
TTITLE4=Down To My Last Teardrop
TTITLE5=Some Kind Of Trouble
TTITLE6=It's A Little Too Late
TTITLE7=Without You What Do I Do With Me
TTITLE8=My Arms Stay Open All Night
TTITLE9=It's Only Over For You
TTITLE10=Just Another Love
TTITLE11=Walking Shoes
TTITLE12=I'll Come Back As Another Woman
TTITLE13=It Won't Be Me
TTITLE14=Oh, What It Did To Me
TTITLE15=CD_Credits
EXTD=
EXTT0=
EXTT1=
EXTT2=
EXTT3=
EXTT4=
EXTT5=
EXTT6=
EXTT7=
EXTT8=
EXTT9=
EXTT10=
EXTT11=
EXTT12=
EXTT13=
EXTT14=
EXTT15=
PLAYORDER=
